<mxfile host="app.diagrams.net" modified="2021-11-13T09:32:17.575Z" agent="5.0 (Macintosh; Intel Mac OS X 10_15_7) AppleWebKit/537.36 (KHTML, like Gecko) Chrome/86.0.4240.193 Safari/537.36" etag="uUJgjZrnHUPSJ846GDwU" version="15.7.3" type="github">
  <diagram id="wx1Syr2t0EAn7pRnbd6R" name="Page-1">
    <mxGraphModel dx="1426" dy="-398" grid="1" gridSize="10" guides="1" tooltips="1" connect="1" arrows="1" fold="1" page="1" pageScale="1" pageWidth="827" pageHeight="1169" math="0" shadow="0">
      <root>
        <mxCell id="0" />
        <mxCell id="1" parent="0" />
        <mxCell id="6jFr6HTYqLj0U7teX0N7-1" style="edgeStyle=none;rounded=0;orthogonalLoop=1;jettySize=auto;html=1;exitX=0.25;exitY=1;exitDx=0;exitDy=0;entryX=0.441;entryY=0.017;entryDx=0;entryDy=0;entryPerimeter=0;fillColor=#dae8fc;strokeColor=#6c8ebf;" edge="1" parent="1" source="6jFr6HTYqLj0U7teX0N7-4" target="6jFr6HTYqLj0U7teX0N7-17">
          <mxGeometry relative="1" as="geometry" />
        </mxCell>
        <mxCell id="6jFr6HTYqLj0U7teX0N7-2" style="edgeStyle=none;rounded=0;orthogonalLoop=1;jettySize=auto;html=1;exitX=0.75;exitY=1;exitDx=0;exitDy=0;entryX=0.559;entryY=0;entryDx=0;entryDy=0;entryPerimeter=0;startArrow=classic;startFill=1;endArrow=none;endFill=0;fillColor=#dae8fc;strokeColor=#6c8ebf;" edge="1" parent="1" source="6jFr6HTYqLj0U7teX0N7-4" target="6jFr6HTYqLj0U7teX0N7-17">
          <mxGeometry relative="1" as="geometry" />
        </mxCell>
        <mxCell id="6jFr6HTYqLj0U7teX0N7-3" value="&lt;span style=&quot;font-size: 12px ; background-color: rgb(248 , 249 , 250)&quot;&gt;返回null&lt;/span&gt;" style="edgeLabel;html=1;align=center;verticalAlign=middle;resizable=0;points=[];" vertex="1" connectable="0" parent="6jFr6HTYqLj0U7teX0N7-2">
          <mxGeometry y="-1" relative="1" as="geometry">
            <mxPoint y="-5" as="offset" />
          </mxGeometry>
        </mxCell>
        <mxCell id="6jFr6HTYqLj0U7teX0N7-4" value="&lt;pre&gt;ASYNC&lt;/pre&gt;&lt;pre&gt;异步发送&lt;/pre&gt;" style="rounded=0;whiteSpace=wrap;html=1;fillColor=#dae8fc;strokeColor=#6c8ebf;" vertex="1" parent="1">
          <mxGeometry x="320" y="1430" width="80" height="50" as="geometry" />
        </mxCell>
        <mxCell id="6jFr6HTYqLj0U7teX0N7-5" style="edgeStyle=none;rounded=0;orthogonalLoop=1;jettySize=auto;html=1;exitX=0.25;exitY=1;exitDx=0;exitDy=0;entryX=0.059;entryY=0.017;entryDx=0;entryDy=0;entryPerimeter=0;fillColor=#d5e8d4;strokeColor=#82b366;" edge="1" parent="1" source="6jFr6HTYqLj0U7teX0N7-8" target="6jFr6HTYqLj0U7teX0N7-17">
          <mxGeometry relative="1" as="geometry" />
        </mxCell>
        <mxCell id="6jFr6HTYqLj0U7teX0N7-6" style="edgeStyle=none;rounded=0;orthogonalLoop=1;jettySize=auto;html=1;exitX=0.75;exitY=1;exitDx=0;exitDy=0;entryX=0.176;entryY=0.017;entryDx=0;entryDy=0;entryPerimeter=0;startArrow=classic;startFill=1;endArrow=none;endFill=0;fillColor=#d5e8d4;strokeColor=#82b366;" edge="1" parent="1" source="6jFr6HTYqLj0U7teX0N7-8" target="6jFr6HTYqLj0U7teX0N7-17">
          <mxGeometry relative="1" as="geometry" />
        </mxCell>
        <mxCell id="6jFr6HTYqLj0U7teX0N7-7" value="&lt;span style=&quot;font-size: 12px ; background-color: rgb(248 , 249 , 250)&quot;&gt;返回null&lt;/span&gt;" style="edgeLabel;html=1;align=center;verticalAlign=middle;resizable=0;points=[];" vertex="1" connectable="0" parent="6jFr6HTYqLj0U7teX0N7-6">
          <mxGeometry x="-0.0812" relative="1" as="geometry">
            <mxPoint as="offset" />
          </mxGeometry>
        </mxCell>
        <mxCell id="6jFr6HTYqLj0U7teX0N7-8" value="&lt;pre&gt;&lt;pre&gt;ONEWAY&lt;/pre&gt;&lt;pre&gt;单向发送&lt;/pre&gt;&lt;/pre&gt;" style="rounded=0;whiteSpace=wrap;html=1;fillColor=#d5e8d4;strokeColor=#82b366;" vertex="1" parent="1">
          <mxGeometry x="190" y="1430" width="80" height="50" as="geometry" />
        </mxCell>
        <mxCell id="6jFr6HTYqLj0U7teX0N7-9" style="edgeStyle=none;rounded=0;orthogonalLoop=1;jettySize=auto;html=1;exitX=0.25;exitY=1;exitDx=0;exitDy=0;entryX=0.824;entryY=0.017;entryDx=0;entryDy=0;entryPerimeter=0;fillColor=#ffe6cc;strokeColor=#d79b00;" edge="1" parent="1" source="6jFr6HTYqLj0U7teX0N7-12" target="6jFr6HTYqLj0U7teX0N7-17">
          <mxGeometry relative="1" as="geometry" />
        </mxCell>
        <mxCell id="6jFr6HTYqLj0U7teX0N7-10" style="edgeStyle=none;rounded=0;orthogonalLoop=1;jettySize=auto;html=1;exitX=0.75;exitY=1;exitDx=0;exitDy=0;entryX=0.944;entryY=0;entryDx=0;entryDy=0;entryPerimeter=0;startArrow=classic;startFill=1;endArrow=none;endFill=0;fillColor=#ffe6cc;strokeColor=#d79b00;" edge="1" parent="1" source="6jFr6HTYqLj0U7teX0N7-12" target="6jFr6HTYqLj0U7teX0N7-17">
          <mxGeometry relative="1" as="geometry" />
        </mxCell>
        <mxCell id="6jFr6HTYqLj0U7teX0N7-11" value="返回SendResultt" style="edgeLabel;html=1;align=center;verticalAlign=middle;resizable=0;points=[];" vertex="1" connectable="0" parent="6jFr6HTYqLj0U7teX0N7-10">
          <mxGeometry x="-0.0002" y="-1" relative="1" as="geometry">
            <mxPoint x="21" y="-5" as="offset" />
          </mxGeometry>
        </mxCell>
        <mxCell id="6jFr6HTYqLj0U7teX0N7-12" value="&lt;pre&gt;&lt;pre&gt;&lt;pre&gt;SYNC&lt;/pre&gt;&lt;pre&gt;同步发送&lt;/pre&gt;&lt;/pre&gt;&lt;/pre&gt;" style="rounded=0;whiteSpace=wrap;html=1;fillColor=#ffe6cc;strokeColor=#d79b00;" vertex="1" parent="1">
          <mxGeometry x="450" y="1430" width="80" height="50" as="geometry" />
        </mxCell>
        <mxCell id="6jFr6HTYqLj0U7teX0N7-13" style="edgeStyle=none;rounded=0;orthogonalLoop=1;jettySize=auto;html=1;exitX=1;exitY=0.5;exitDx=0;exitDy=0;entryX=0;entryY=0.5;entryDx=0;entryDy=0;startArrow=none;startFill=0;endArrow=classic;endFill=1;fillColor=#dae8fc;strokeColor=#6c8ebf;" edge="1" parent="1" source="6jFr6HTYqLj0U7teX0N7-15" target="6jFr6HTYqLj0U7teX0N7-23">
          <mxGeometry relative="1" as="geometry" />
        </mxCell>
        <mxCell id="6jFr6HTYqLj0U7teX0N7-14" style="edgeStyle=none;rounded=0;orthogonalLoop=1;jettySize=auto;html=1;exitX=0.5;exitY=1;exitDx=0;exitDy=0;entryX=0.479;entryY=0.007;entryDx=0;entryDy=0;entryPerimeter=0;startArrow=none;startFill=0;endArrow=classic;endFill=1;" edge="1" parent="1" source="6jFr6HTYqLj0U7teX0N7-15" target="6jFr6HTYqLj0U7teX0N7-24">
          <mxGeometry relative="1" as="geometry" />
        </mxCell>
        <mxCell id="6jFr6HTYqLj0U7teX0N7-15" value="MQClientAPIImpl#processSendResponse&lt;br&gt;处理请求结果，并返回" style="rounded=0;whiteSpace=wrap;html=1;" vertex="1" parent="1">
          <mxGeometry x="360" y="1820" width="260" height="52.5" as="geometry" />
        </mxCell>
        <mxCell id="6jFr6HTYqLj0U7teX0N7-16" style="edgeStyle=none;rounded=0;orthogonalLoop=1;jettySize=auto;html=1;exitX=0.5;exitY=1;exitDx=0;exitDy=0;entryX=0.5;entryY=0;entryDx=0;entryDy=0;startArrow=none;startFill=0;endArrow=classic;endFill=1;fillColor=#dae8fc;strokeColor=#6c8ebf;dashed=1;" edge="1" parent="1" source="6jFr6HTYqLj0U7teX0N7-17" target="6jFr6HTYqLj0U7teX0N7-19">
          <mxGeometry relative="1" as="geometry" />
        </mxCell>
        <mxCell id="6jFr6HTYqLj0U7teX0N7-17" value="&lt;pre&gt;NettyRemotingClient&lt;/pre&gt;&lt;pre&gt;向broker发送SEND_REPLY_MESSAGE_V2类型的消息&lt;/pre&gt;" style="rounded=0;whiteSpace=wrap;html=1;" vertex="1" parent="1">
          <mxGeometry x="190" y="1590" width="340" height="60" as="geometry" />
        </mxCell>
        <mxCell id="6jFr6HTYqLj0U7teX0N7-18" style="edgeStyle=none;rounded=0;orthogonalLoop=1;jettySize=auto;html=1;exitX=1;exitY=0.5;exitDx=0;exitDy=0;entryX=0;entryY=0.5;entryDx=0;entryDy=0;startArrow=none;startFill=0;endArrow=classic;endFill=1;fillColor=#dae8fc;strokeColor=#6c8ebf;" edge="1" parent="1" source="6jFr6HTYqLj0U7teX0N7-19" target="6jFr6HTYqLj0U7teX0N7-15">
          <mxGeometry relative="1" as="geometry" />
        </mxCell>
        <mxCell id="6jFr6HTYqLj0U7teX0N7-19" value="&lt;pre&gt;异步发送收到响应后&lt;/pre&gt;&lt;pre&gt;调用InvokeCallback接口实现类&lt;/pre&gt;" style="rounded=0;whiteSpace=wrap;html=1;fillColor=#dae8fc;strokeColor=#6c8ebf;" vertex="1" parent="1">
          <mxGeometry x="65" y="1816.25" width="230" height="60" as="geometry" />
        </mxCell>
        <mxCell id="6jFr6HTYqLj0U7teX0N7-20" style="edgeStyle=none;rounded=0;orthogonalLoop=1;jettySize=auto;html=1;exitX=0.25;exitY=1;exitDx=0;exitDy=0;entryX=0.419;entryY=0;entryDx=0;entryDy=0;entryPerimeter=0;fillColor=#ffe6cc;strokeColor=#d79b00;" edge="1" parent="1">
          <mxGeometry relative="1" as="geometry">
            <mxPoint x="471" y="1650" as="sourcePoint" />
            <mxPoint x="469.94000000000005" y="1820" as="targetPoint" />
          </mxGeometry>
        </mxCell>
        <mxCell id="6jFr6HTYqLj0U7teX0N7-21" style="edgeStyle=none;rounded=0;orthogonalLoop=1;jettySize=auto;html=1;exitX=0.75;exitY=1;exitDx=0;exitDy=0;entryX=0.573;entryY=0.019;entryDx=0;entryDy=0;entryPerimeter=0;startArrow=classic;startFill=1;endArrow=none;endFill=0;fillColor=#ffe6cc;strokeColor=#d79b00;" edge="1" parent="1" target="6jFr6HTYqLj0U7teX0N7-15">
          <mxGeometry relative="1" as="geometry">
            <mxPoint x="510" y="1650" as="sourcePoint" />
            <mxPoint x="510.96000000000004" y="1760" as="targetPoint" />
          </mxGeometry>
        </mxCell>
        <mxCell id="6jFr6HTYqLj0U7teX0N7-22" value="返回SendResultt" style="edgeLabel;html=1;align=center;verticalAlign=middle;resizable=0;points=[];" vertex="1" connectable="0" parent="6jFr6HTYqLj0U7teX0N7-21">
          <mxGeometry x="0.0177" y="-1" relative="1" as="geometry">
            <mxPoint x="22" as="offset" />
          </mxGeometry>
        </mxCell>
        <mxCell id="6jFr6HTYqLj0U7teX0N7-23" value="回调SendCallback#onSuccess&lt;br&gt;传入SendResult" style="rounded=0;whiteSpace=wrap;html=1;fillColor=#dae8fc;strokeColor=#6c8ebf;" vertex="1" parent="1">
          <mxGeometry x="670" y="1820" width="260" height="52.5" as="geometry" />
        </mxCell>
        <mxCell id="6jFr6HTYqLj0U7teX0N7-24" value="构建SendResult，主要包含如下内容&lt;br&gt;1. 发送状态&lt;br&gt;1. uniqKey (客户端生成的对消息的唯一标识)&lt;br&gt;2. messageId （服务端生成的对消息的唯一标识）&lt;br&gt;3. 发送到的队列信息（topic brokerName等信息）&lt;br&gt;4. 消息在队列中的偏移量" style="rounded=0;whiteSpace=wrap;html=1;" vertex="1" parent="1">
          <mxGeometry x="352" y="1910" width="288" height="110" as="geometry" />
        </mxCell>
      </root>
    </mxGraphModel>
  </diagram>
</mxfile>
